<svg height="32" viewBox="0 0 32 32" width="32" xmlns="http://www.w3.org/2000/svg" xmlns:xlink="http://www.w3.org/1999/xlink"><defs><filter id="a" height="111.7%" width="111.7%" x="-5.8%" y="-4.2%"><feOffset dy=".5" in="SourceAlpha" result="shadowOffsetOuter1"/><feGaussianBlur in="shadowOffsetOuter1" result="shadowBlurOuter1" stdDeviation=".5"/><feComposite in="shadowBlurOuter1" in2="SourceAlpha" operator="out" result="shadowBlurOuter1"/><feColorMatrix in="shadowBlurOuter1" values="0 0 0 0 0 0 0 0 0 0 0 0 0 0 0 0 0 0 0.199473505 0"/></filter><filter id="b" height="119.7%" width="118.1%" x="-9.1%" y="-7%"><feOffset dy=".5" in="SourceAlpha" result="shadowOffsetOuter1"/><feGaussianBlur in="shadowOffsetOuter1" result="shadowBlurOuter1" stdDeviation=".5"/><feColorMatrix in="shadowBlurOuter1" values="0 0 0 0 0 0 0 0 0 0 0 0 0 0 0 0 0 0 0.204257246 0"/></filter><linearGradient id="c" x1="50%" x2="50%" y1="0%" y2="100%"><stop offset="0" stop-color="#fff" stop-opacity=".5"/><stop offset="1" stop-opacity=".5"/></linearGradient><circle id="d" cx="16" cy="15" r="15"/><path id="e" d="m17.922 16.383v-.002c-.11.008-.677.042-1.942.042-1.01 0-1.721-.03-1.971-.042v.003c-3.888-.171-6.79-.848-6.79-1.658 0-.809 2.902-1.486 6.79-1.66v2.644c.254.018.982.061 1.988.061 1.207 0 1.812-.05 1.925-.06v-2.643c3.88.173 6.775.85 6.775 1.658 0 .81-2.895 1.485-6.775 1.657m0-3.59v-2.366h5.414v-3.608h-14.741v3.608h5.414v2.365c-4.4.202-7.709 1.074-7.709 2.118s3.309 1.915 7.709 2.118v7.582h3.913v-7.584c4.393-.202 7.694-1.073 7.694-2.116s-3.301-1.914-7.694-2.117"/></defs><g fill="none" fill-rule="evenodd"><use fill="#000" filter="url(#a)" xlink:href="#d"/><use fill="#26a17b" xlink:href="#d"/><use fill="url(#c)" xlink:href="#d"/><circle cx="16" cy="15" r="14.5" stroke="#000" stroke-opacity=".097"/><use fill="#000" filter="url(#b)" xlink:href="#e"/><use fill="#fff" xlink:href="#e"/></g></svg>